<svg width="16" height="16" viewBox="0 0 16 16" fill="none" xmlns="http://www.w3.org/2000/svg">
<path d="M7.28423 1.57255C7.41763 1.2753 7.80307 1.2753 7.93647 1.57255L9.66334 5.42051C9.71632 5.53855 9.81871 5.62036 9.93717 5.63929L13.7986 6.25634C14.0969 6.30401 14.216 6.70713 14.0001 6.93851L11.206 9.93373C11.1203 10.0256 11.0812 10.158 11.1014 10.2877L11.761 14.517C11.812 14.8438 11.5001 15.0929 11.2333 14.9387L7.77958 12.9418C7.67364 12.8806 7.54707 12.8806 7.44112 12.9418L3.98737 14.9387C3.72057 15.0929 3.40875 14.8438 3.4597 14.517L4.11931 10.2877C4.13954 10.158 4.10043 10.0256 4.01472 9.93373L1.22057 6.93851C1.00473 6.70713 1.12383 6.30401 1.42213 6.25634L5.28354 5.63929C5.40199 5.62036 5.50439 5.53855 5.55736 5.42051L7.28423 1.57255Z" fill="#2e54ff" stroke="#2e54ff" stroke-width="2" stroke-linejoin="round"/>
</svg>
